<?xml version="1.0" encoding="utf-8"?>
<!-- Svg Vector Icons : http://www.onlinewebfonts.com/icon -->
<!DOCTYPE svg PUBLIC "-//W3C//DTD SVG 1.1//EN" "http://www.w3.org/Graphics/SVG/1.1/DTD/svg11.dtd">
<svg version="1.1" xmlns="http://www.w3.org/2000/svg" xmlns:xlink="http://www.w3.org/1999/xlink" x="0px" y="0px" viewBox="0 0 1000 1000" enable-background="new 0 0 1000 1000" xml:space="preserve">
<metadata> Svg Vector Icons : http://www.onlinewebfonts.com/icon </metadata>
<g><g transform="translate(0.000000,511.000000) scale(0.100000,-0.100000)"><path d="M6758.6,4167.2c-110.4-32.7-230.9-143.1-273.8-245.3c-22.5-55.2-28.6-259.6-28.6-1060.7V1870h81.7h81.8v848.2v848.2h1553.3h1553.2V1420.4V-725.6h-337.2h-337.2v-126.7c0-71.5-6.1-273.9-14.3-449.6l-12.2-322.9h265.7c253.4,0,273.8,4.1,376,57.2c79.7,40.9,126.7,83.8,171.7,157.4l61.3,98.1v2597.6c0,2867.4,10.2,2642.6-124.7,2779.5c-132.8,130.8-47,124.7-1551.2,128.8C7065.1,4197.9,6840.3,4193.8,6758.6,4167.2z M8612.2,3934.2c30.7-34.7,32.7-49,14.3-92l-24.5-51.1h-414.9c-296.3,0-421,6.1-439.4,24.5c-36.8,36.8-30.7,112.4,12.2,136.9c20.4,12.3,198.2,22.5,425.1,22.5C8550.9,3975.1,8577.5,3973,8612.2,3934.2z"/><path d="M273.7,3805.5c-53.1-28.6-98.1-75.6-128.8-136.9l-45-92l4.1-2752.9l6.1-2753l42.9-57.2c22.5-30.7,73.6-77.7,110.4-102.2c65.4-45,79.7-47,615.2-47h549.8v664.2v664.2H907.3H386.1l4.1,2182.7l6.1,2180.7H2481h2084.6l6.1-842l4.1-844.1h143.1H4864l-6.1,884.9l-6.1,887l-55.2,71.5c-112.4,149.2,42.9,139-2319.7,139H355.5L273.7,3805.5z"/><path d="M1978.2,1485.8c-85.8-45-124.7-81.8-177.8-167.6l-65.4-112.4l4.1-1923.2l6.1-1923.2l61.3-98.1c45-73.6,92-116.5,171.7-157.4l108.3-57.2h3141.3c2209.3,0,3163.7,6.1,3221,22.5c106.3,28.6,257.5,183.9,292.3,296.3c32.7,112.4,34.7,3738.1,2.1,3856.6c-26.6,100.2-149.2,235-253.4,282c-77.7,36.8-228.9,38.8-3241.4,38.8H2086.5L1978.2,1485.8z"/><path d="M4224.3-3376.3l-6.1-220.7l-269.8-10.2c-249.3-10.2-271.8-14.3-320.9-59.3c-100.1-96-55.2-247.3,85.8-288.2c49.1-12.3,596.8-20.4,1543-20.4c1577.8,0,1563.5,0,1637.1,104.2c49,71.5,40.9,136.9-26.6,204.4l-59.3,59.3h-267.7h-267.7v224.8v224.8H5250.3H4230.4L4224.3-3376.3z"/></g></g>
</svg>