<?xml version="1.0" encoding="utf-8"?>
<!-- Svg Vector Icons : http://www.onlinewebfonts.com/icon -->
<!DOCTYPE svg PUBLIC "-//W3C//DTD SVG 1.1//EN" "http://www.w3.org/Graphics/SVG/1.1/DTD/svg11.dtd">
<svg version="1.1" xmlns="http://www.w3.org/2000/svg" xmlns:xlink="http://www.w3.org/1999/xlink" x="0px" y="0px" viewBox="0 0 1000 1000" enable-background="new 0 0 1000 1000" xml:space="preserve">
<metadata> Svg Vector Icons : http://www.onlinewebfonts.com/icon </metadata>
<g><path d="M45,447.6V342.4c0-9.5-7.8-17.4-17.5-17.4c-9.7,0-17.5,7.8-17.5,17.4v105.1c0,9.5,7.8,17.4,17.5,17.4C37.2,465,45,457.2,45,447.6z"/><path d="M97.5,517.5v-245c0-9.7-7.8-17.5-17.5-17.5c-9.7,0-17.5,7.8-17.5,17.5v245c0,9.7,7.8,17.5,17.5,17.5C89.7,535,97.5,527.2,97.5,517.5z"/><path d="M937.5,517.5v-245c0-9.7-7.8-17.5-17.5-17.5c-9.7,0-17.5,7.8-17.5,17.5v245c0,9.7,7.8,17.5,17.5,17.5C929.7,535,937.5,527.2,937.5,517.5z"/><path d="M972.5,325c-9.7,0-17.5,7.8-17.5,17.4v105.1c0,9.5,7.8,17.4,17.5,17.4c9.7,0,17.5-7.8,17.5-17.4V342.4C990,332.9,982.2,325,972.5,325z"/><path d="M605.1,10H394.9C375.7,10,360,25.7,360,45.1V115H150.1c-19.4,0-35.1,15.7-35.1,35V640c0,19.5,15.7,35,35.1,35H360v70h-70c-19.2,0-35,15.7-35,35.1v174.8c0,19.4,15.6,35.1,34.8,35.1h420.3c19.1,0,34.8-15.7,34.8-35.1V780.1c0-19.4-15.7-35.1-35-35.1h-70v-70h209.9c19.4,0,35.1-15.7,35.1-35V150c0-19.5-15.7-35-35.1-35H640V45.1C640,25.5,624.4,10,605.1,10z M255,395c0-38.7,31.3-70,70-70c38.7,0,70,31.3,70,70c0,38.7-31.3,70-70,70C286.3,465,255,433.7,255,395z M605,395c0-38.7,31.3-70,70-70c38.7,0,70,31.3,70,70c0,38.7-31.3,70-70,70C636.3,465,605,433.7,605,395z M395,45h210v70H395V45z"/></g>
</svg>