<?xml version="1.0" encoding="utf-8"?>
<!-- Svg Vector Icons : http://www.onlinewebfonts.com/icon -->
<!DOCTYPE svg PUBLIC "-//W3C//DTD SVG 1.1//EN" "http://www.w3.org/Graphics/SVG/1.1/DTD/svg11.dtd">
<svg version="1.1" xmlns="http://www.w3.org/2000/svg" xmlns:xlink="http://www.w3.org/1999/xlink" x="0px" y="0px" viewBox="0 0 1000 1000" enable-background="new 0 0 1000 1000" xml:space="preserve">
<metadata> Svg Vector Icons : http://www.onlinewebfonts.com/icon </metadata>
<g><g transform="translate(0.000000,511.000000) scale(0.100000,-0.100000)"><path d="M156.7,4590.3l-56.7-54.4V3376.7V2217.4l56.7-54.4l54.4-56.7H2516h2302.5v-363v-363H2516H211.2l-54.4-56.7l-56.7-54.4V110v-1159.2l56.7-54.5l54.4-56.7H2516h2302.5v-363v-363H2516H211.2l-54.4-56.7l-56.7-54.5v-1159.2v-1159.2l56.7-54.5l54.4-56.7H5000h4788.8l54.5,56.7l56.7,54.5v1159.2v1159.2l-56.7,54.5l-54.5,56.7H7484H5181.5v363v363H7484h2304.8l54.5,56.7l56.7,54.5V110v1159.2l-56.7,54.4l-54.5,56.7H7484H5181.5v363v363H7484h2304.8l54.5,56.7l56.7,54.4v1159.2v1159.2l-56.7,54.4l-54.5,56.7H5000H211.2L156.7,4590.3z M3672.9,3864.4c74.9-72.6,74.9-176.9,0-249.5l-54.4-56.7H2277.8H937.1l-54.4,56.7c-36.3,34-56.7,81.7-56.7,124.8c0,43.1,20.4,90.7,56.7,124.8l54.4,56.7h1340.7h1340.7L3672.9,3864.4z M8071.6,3893.9c195.1-59,376.6-308.5,376.6-517.2c0-281.3-263.1-544.4-544.4-544.4c-142.9,0-258.6,52.2-374.3,170.1c-231.4,229.1-231.4,519.5,0,748.6C7688.2,3912,7858.3,3955.1,8071.6,3893.9z M3672.9,3138.5c74.9-72.6,74.9-176.9,0-249.5l-54.4-56.7H2277.8H937.1l-54.4,56.7c-36.3,34-56.7,81.7-56.7,124.8c0,43.1,20.4,90.7,56.7,124.8l54.4,56.7h1340.7h1340.7L3672.9,3138.5z M3672.9,597.7c74.9-72.6,74.9-176.9,0-249.5l-54.4-56.7H2277.8H937.1l-54.4,56.7c-36.3,34-56.7,81.7-56.7,124.8s20.4,90.7,56.7,124.8l54.4,56.7h1340.7h1340.7L3672.9,597.7z M8071.6,627.2c195.1-59,376.6-308.5,376.6-517.2c0-281.3-263.1-544.4-544.4-544.4c-281.3,0-544.4,263.1-544.4,544.4c0,142.9,52.2,258.6,170.1,374.3C7688.2,645.4,7858.3,688.5,8071.6,627.2z M3672.9-128.2c74.9-72.6,74.9-176.9,0-249.5l-54.4-56.7H2277.8H937.1l-54.4,56.7c-36.3,34-56.7,81.7-56.7,124.8s20.4,90.7,56.7,124.8l54.4,56.7h1340.7h1340.7L3672.9-128.2z M3672.9-2668.9c74.9-72.6,74.9-176.9,0-249.5l-54.4-56.7H2277.8H937.1l-54.4,56.7c-36.3,34-56.7,81.7-56.7,124.8s20.4,90.7,56.7,124.8l54.4,56.7h1340.7h1340.7L3672.9-2668.9z M8071.6-2639.5c195.1-59,376.6-308.5,376.6-517.2c0-281.3-263.1-544.4-544.4-544.4c-281.3,0-544.4,263.1-544.4,544.4c0,142.9,52.2,258.6,170.1,374.3C7688.2-2621.3,7858.3-2578.2,8071.6-2639.5z M3672.9-3394.9c74.9-72.6,74.9-176.9,0-249.5l-54.4-56.7H2277.8H937.1l-54.4,56.7c-36.3,34-56.7,81.7-56.7,124.8s20.4,90.7,56.7,124.8l54.4,56.7h1340.7h1340.7L3672.9-3394.9z"/><path d="M7778.9,3501.4c-36.3-34-56.7-81.7-56.7-124.8c0-43.1,20.4-90.7,56.7-124.8c34-36.3,81.7-56.7,124.8-56.7c43.1,0,90.7,20.4,124.8,56.7c36.3,34,56.7,81.7,56.7,124.8c0,43.1-20.4,90.7-56.7,124.8c-34,36.3-81.7,56.7-124.8,56.7C7860.6,3558.1,7813,3537.7,7778.9,3501.4z"/><path d="M7778.9,234.8c-113.4-111.2-34-306.3,124.8-306.3c93,0,181.5,88.5,181.5,181.5c0,43.1-20.4,90.7-56.7,124.8c-34,36.3-81.7,56.7-124.8,56.7C7860.6,291.5,7813,271.1,7778.9,234.8z"/><path d="M7778.9-3031.9c-113.4-111.2-34-306.3,124.8-306.3c93,0,181.5,88.5,181.5,181.5c0,93-88.5,181.5-181.5,181.5C7860.6-2975.2,7813-2995.6,7778.9-3031.9z"/></g></g>
</svg>