<?xml version="1.0" encoding="utf-8"?>
<!-- Svg Vector Icons : http://www.onlinewebfonts.com/icon -->
<!DOCTYPE svg PUBLIC "-//W3C//DTD SVG 1.1//EN" "http://www.w3.org/Graphics/SVG/1.1/DTD/svg11.dtd">
<svg version="1.1" xmlns="http://www.w3.org/2000/svg" xmlns:xlink="http://www.w3.org/1999/xlink" x="0px" y="0px" viewBox="0 0 1000 1000" enable-background="new 0 0 1000 1000" xml:space="preserve">
<metadata> Svg Vector Icons : http://www.onlinewebfonts.com/icon </metadata>
<g><g transform="translate(0.000000,512.000000) scale(0.100000,-0.100000)"><path d="M7890.2,5007.3c-507.2-84.2-861.3-564.6-784.8-1066.1c88-581.9,683.3-947.5,1236.5-758c461.3,158.9,731.2,654.6,610.6,1119.7C8830,4773.7,8359.2,5085.7,7890.2,5007.3z"/><path d="M2798.8,3355.4v-459.4h1368.6h1370.5l126.3-84.2l126.3-86.1l-164.6-105.3c-698.6-451.7-1410.7-934.1-1462.3-993.4c-93.8-109.1-124.4-264.2-82.3-419.2c13.4-44,354.1-530.2,890-1269c478.5-658.4,870.9-1205.9,870.9-1215.4c0-13.4-652.7-19.1-1904.5-19.1H2033.2v-449.8v-449.8l2436.6,3.8l2438.5,5.7l93.8,57.4c187.6,116.8,269.9,357.9,183.8,549.3c-19.1,45.9-380.9,558.9-802,1137c-419.2,578-769.5,1060.4-777.1,1073.8c-15.3,23,1569.5,1115.9,1617.4,1115.9c15.3,0,53.6-23,88-51.7c51.7-45.9,111-176.1,369.4-809.6C8030,32.6,8020.4,53.7,8095-21c122.5-124.4,124.4-126.3,1006.8-126.3H9900v449.8v449.8h-591.5H8719l-292.9,723.5c-162.7,403.9-312,748.4-340.7,784.8c-61.3,74.7-2162.9,1489.1-2270.1,1527.4c-59.3,21.1-342.6,26.8-1544.6,26.8H2798.8V3355.4z"/><path d="M100,2015.6v-306.3h1550.4h1550.4v306.3v306.3H1650.4H100V2015.6z"/><path d="M100,934.1V637.5h1550.4h1550.4v296.7v296.7H1650.4H100V934.1z"/><path d="M100-156.9v-296.7h1550.4h1550.4v296.7v296.7H1650.4H100V-156.9z"/><path d="M3047.7-3353.4l-775.2-775.2l325.4-325.4l325.4-325.4l775.2,775.2l775.2,775.2l-325.4,325.4l-325.4,325.4L3047.7-3353.4z"/></g></g>
</svg>